HIERARCHY
ROOT Hips
{
	OFFSET -3.958830 18.904000 13.208200
	CHANNELS 6 Xposition Yposition Zposition Zrotation Yrotation Xrotation 
	JOINT LHipJoint
	{
		OFFSET 0.000000 0.000000 0.000000
		CHANNELS 3 Zrotation Yrotation Xrotation
		JOINT LeftUpLeg
		{
			OFFSET 1.800000 -1.400000 0.085000
			CHANNELS 3 Zrotation Yrotation Xrotation
			JOINT LeftLeg
			{
				OFFSET 2.215000 -6.000000 0.000000
				CHANNELS 3 Zrotation Yrotation Xrotation
				JOINT LeftFoot
				{
					OFFSET 2.500000 -6.900000 0.000000
					CHANNELS 3 Zrotation Yrotation Xrotation
					JOINT LeftToeBase
					{
						OFFSET 0.200000 -0.500000 1.950000
						CHANNELS 3 Zrotation Yrotation Xrotation
						End Site
						{
							OFFSET 0.000000 0.000000 0.000000
						}
					}
				}
			}
		}
	}
	JOINT RHipJoint
	{
		OFFSET 0.000000 0.000000 0.000000
		CHANNELS 3 Zrotation Yrotation Xrotation
		JOINT RightUpLeg
		{
			OFFSET -1.800000 -1.400000 0.085000
			CHANNELS 3 Zrotation Yrotation Xrotation
			JOINT RightLeg
			{
				OFFSET -2.215000 -6.000000 0.000000
				CHANNELS 3 Zrotation Yrotation Xrotation
				JOINT RightFoot
				{
					OFFSET -2.500000 -6.900000 0.000000
					CHANNELS 3 Zrotation Yrotation Xrotation
					JOINT RightToeBase
					{
						OFFSET -0.200000 -0.500000 1.950000
						CHANNELS 3 Zrotation Yrotation Xrotation
						End Site
						{
							OFFSET 0.000000 0.000000 0.000000
						}
					}
				}
			}
		}
	}
	JOINT LowerBack
	{
		OFFSET 0.000000 0.000000 0.000000
		CHANNELS 3 Zrotation Yrotation Xrotation
		JOINT Spine
		{
			OFFSET -0.087000 1.940000 -0.288900
			CHANNELS 3 Zrotation Yrotation Xrotation
			JOINT Spine1
			{
				OFFSET 0.000000 1.950000 0.060000
				CHANNELS 3 Zrotation Yrotation Xrotation
				JOINT Neck
				{
					OFFSET 0.000000 0.000000 0.000000
					CHANNELS 3 Zrotation Yrotation Xrotation
					JOINT Neck1
					{
						OFFSET 0.000000 1.600000 0.340000
						CHANNELS 3 Zrotation Yrotation Xrotation
						JOINT Head
						{
							OFFSET 0.000000 1.667000 -0.240000
							CHANNELS 3 Zrotation Yrotation Xrotation
							End Site
							{
								OFFSET 0.000000 0.000000 0.000000
							}
						}
					}
				}
				JOINT LeftShoulder
				{
					OFFSET 0.000000 0.000000 0.000000
					CHANNELS 3 Zrotation Yrotation Xrotation
					JOINT LeftArm
					{
						OFFSET 2.700000 1.550000 -0.730000
						CHANNELS 3 Zrotation Yrotation Xrotation
						JOINT LeftForeArm
						{
							OFFSET 5.450000 0.000000 0.000000
							CHANNELS 3 Zrotation Yrotation Xrotation
							JOINT LeftHand
							{
								OFFSET 3.450000 0.000000 0.000000
								CHANNELS 3 Zrotation Yrotation Xrotation
								JOINT LeftHandIndex1
								{
									OFFSET 0.750000 0.000000 0.000000
									CHANNELS 3 Zrotation Yrotation Xrotation
									End Site
									{
										OFFSET 0.000000 0.000000 0.000000
									}
								}
							}
						}
					}
				}
				JOINT RightShoulder
				{
					OFFSET 0.000000 0.000000 0.000000
					CHANNELS 3 Zrotation Yrotation Xrotation
					JOINT RightArm
					{
						OFFSET -2.700000 1.550000 -0.730000
						CHANNELS 3 Zrotation Yrotation Xrotation
						JOINT RightForeArm
						{
							OFFSET -5.450000 0.000000 0.000000
							CHANNELS 3 Zrotation Yrotation Xrotation
							JOINT RightHand
							{
								OFFSET -3.450000 0.000000 0.000000
								CHANNELS 3 Zrotation Yrotation Xrotation
								JOINT RightHandIndex1
								{
									OFFSET -0.750000 0.000000 0.000000
									CHANNELS 3 Zrotation Yrotation Xrotation
									End Site
									{
										OFFSET 0.000000 0.000000 0.000000
									}
								}
							}
						}
					}
				}
			}
		}
	}
}
MOTION
Frames: 4
Frame Time: 0.016667
1.242080 16.817020 -3.409590 -1.997848 -1.028268 -7.347093 -15.191349 13.679515 3.100728 -1.533154 -1.587998 -6.185219 -4.339692 8.042151 29.982615 0.221198 5.616379 2.475440 0.379310 0.213470 0.473470 18.141508 -11.054587 3.221578 6.190542 4.808986 -18.669592 -12.104290 -1.465260 52.605701 -1.218752 -6.978609 1.883696 0.041890 -0.312950 0.110830 -3.278635 -1.722885 -8.098461 4.559572 -1.124259 15.047453 -4.877232 -0.112487 -2.001322 4.633565 4.727835 -9.165718 6.639478 -3.086488 60.943397 -0.565040 2.159120 -6.202290 -33.630674 -7.444700 2.345797 -45.937493 0.202806 -5.747102 -10.211461 -14.806647 -0.179795 -3.425780 2.856479 0.546010 -0.213380 0.350010 -0.008750 25.321038 4.609981 4.407431 57.405199 -5.119954 -10.390655 10.232151 17.020946 0.016002 2.507285 -1.038534 0.015810 0.019510 -0.137700 -0.250530 
1.236930 16.803520 -3.403560 -1.912315 -1.188991 -7.631547 -15.216665 13.698270 3.105175 -1.582246 -1.620899 -6.112203 -4.210298 8.078774 30.431761 0.229739 5.684496 2.447646 0.389360 0.226060 0.478550 18.117899 -11.048597 3.190098 5.911340 4.752226 -18.400037 -11.762008 -1.710488 52.943635 -1.232379 -7.041125 1.860010 0.051740 -0.313660 0.112710 -3.205746 -1.783814 -8.077286 4.101380 -1.039642 14.964954 -4.399440 -0.078949 -1.728274 4.586336 4.715092 -9.108837 6.613204 -2.973647 61.466352 -0.352730 2.240790 -6.197270 -33.866822 -7.560292 2.301223 -46.148936 -0.462964 -5.483464 -10.438088 -14.852818 -0.142930 -3.428616 2.861064 0.545840 -0.213150 0.351850 -0.008050 25.773974 4.786974 4.347221 56.800501 -4.638765 -10.190320 9.561822 17.561975 -0.010705 2.496827 -1.045038 0.017670 0.020510 -0.139310 -0.250880 
1.227410 16.779850 -3.398740 -1.832783 -1.711051 -8.452837 -15.244171 13.731812 3.123878 -1.524999 -1.697015 -5.811564 -4.222267 8.291652 31.436840 0.239567 5.877670 2.369367 0.415670 0.259750 0.498400 18.087860 -11.041719 3.142044 5.330913 4.698553 -17.864231 -11.019698 -2.282079 53.912575 -1.278860 -7.209886 1.800266 0.080000 -0.325220 0.108820 -3.113551 -1.878683 -8.071389 3.639216 -0.965294 15.252492 -3.913149 -0.015470 -1.363690 4.591472 4.680662 -9.073678 6.616844 -2.943399 63.270331 -0.315100 2.417360 -6.704610 -34.971830 -7.998548 2.257882 -45.779299 -1.501249 -5.100952 -10.911822 -15.359023 -0.046572 -3.415967 2.856398 0.563560 -0.220790 0.365650 -0.009840 27.034253 5.381046 4.257704 55.435826 -3.557366 -9.659903 8.363947 18.178473 -0.064405 2.471662 -1.041502 0.012730 0.037630 -0.141780 -0.260380 
1.222280 16.750950 -3.394470 -1.990339 -2.278641 -9.263067 -15.259753 13.781638 3.136275 -1.376707 -1.814517 -5.545607 -4.123693 8.443652 32.448361 0.255674 6.062137 2.299955 0.449420 0.300070 0.520700 18.070387 -11.017871 3.095453 4.788865 4.589746 -17.424926 -10.173614 -2.996125 54.950823 -1.334974 -7.394411 1.733620 0.108840 -0.332300 0.108690 -3.057694 -2.038934 -8.066999 3.683635 -1.222374 15.444101 -3.451670 -0.247672 -0.603974 4.533012 4.224706 -9.148478 5.526848 -2.417695 65.120557 -0.222860 2.440130 -7.291350 -35.734083 -8.801489 2.314224 -45.871774 -3.342918 -4.399771 -11.534592 -15.899191 0.100524 -3.402555 2.854480 0.579340 -0.232060 0.383360 -0.003230 28.019503 6.546881 4.356271 53.978237 -1.855475 -9.013977 7.572065 19.248550 -0.074979 2.448988 -1.047173 0.013390 0.058260 -0.150580 -0.261470 
